<svg xmlns="http://www.w3.org/2000/svg" viewBox="0 0 470 140" fill="none">
  <path d="M 23 124 V 59 C 23 34 41 18.5 63.5 18.5 C 86 18.5 104 36 104 59 V 124" stroke="#DE6E38" stroke-width="10" stroke-linecap="butt" stroke-linejoin="round"/>
  <path d="M 138 15 V 79 C 138 104 154 122.5 177 122.5 C 200 122.5 216 104 216 79 V 15" stroke="#DE6E38" stroke-width="10" stroke-linecap="butt" stroke-linejoin="round"/>
  <path d="M 253 15 V 79 C 253 104 269 122.5 292 122.5 C 315 122.5 331 104 331 79 V 15" stroke="#DE6E38" stroke-width="10" stroke-linecap="butt" stroke-linejoin="round"/>
  <path d="M 367 124 V 59 C 367 34 385 18.5 407.5 18.5 C 430 18.5 448 36 448 59 V 124" stroke="#DE6E38" stroke-width="10" stroke-linecap="butt" stroke-linejoin="round"/>
</svg>
